<svg width="28" height="28" viewBox="0 0 28 28" fill="none" xmlns="http://www.w3.org/2000/svg">
<path d="M12.884 11.8254C12.9546 11.8704 13.0331 11.8927 13.1109 11.8927V11.8935C13.2236 11.8935 13.3347 11.8473 13.4189 11.7585L16.7193 8.27185C16.8434 8.14082 16.8798 7.94568 16.8123 7.77483C16.7447 7.60398 16.5869 7.49367 16.4109 7.49367H15.002L15.6575 5.79991C15.7121 5.65893 15.6962 5.49963 15.6154 5.37339C15.5342 5.24714 15.3995 5.17188 15.2546 5.17188H13.3609C13.1648 5.17188 12.9922 5.31206 12.9413 5.50879L12.0339 8.51717L12.0286 8.5343L12.0252 8.55182C11.9979 8.68722 12.0297 8.82621 12.1128 8.93374C12.1955 9.04087 12.3188 9.1026 12.4504 9.1026H13.378L12.6974 11.2946C12.6348 11.4965 12.7114 11.7147 12.884 11.8254Z" fill="url(#paint0_linear_1826_10116)"/>
<path d="M27.1532 2.37929H22.4V0H6.21427V2.37929H1.45293C1.00675 2.37929 0.636719 2.74985 0.636719 3.21519V7.69026C0.636719 10.2505 2.66455 12.3291 5.16229 12.3291H6.7947C7.43408 13.8208 8.52781 15.1918 9.72224 16.1828L10.0759 16.4758C11.1524 17.3729 11.7754 18.7172 11.7754 20.1314V22.6106H9.91626C8.62032 22.6106 7.57734 23.6887 7.57734 25.0071V25.4139H5.89499V28H22.7201V25.4139H21.0378V25.0071C21.0378 23.6792 19.9866 22.6106 18.6989 22.6106H16.8225V19.8556C16.8225 18.6052 17.3694 17.4246 18.3198 16.6395L18.8839 16.1742C20.0783 15.1823 21.1721 13.8121 21.8114 12.3204H23.4438C25.9424 12.3204 27.9702 10.2428 27.9702 7.68164V3.21519C27.9702 2.75846 27.6084 2.37929 27.154 2.37929H27.1532ZM5.16229 10.1652C3.82459 10.1652 2.73986 9.05269 2.73986 7.68251V4.52678H6.21427V9.67401C6.21427 9.83774 6.23965 10.0015 6.25602 10.1652H5.16229ZM18.6981 11.0709C18.328 11.7689 17.764 12.3558 17.0828 12.7349L17.0746 12.7263C12.2118 15.4159 7.299 10.3901 9.92363 5.39801C10.2937 4.69999 10.8577 4.11314 11.547 3.74258C16.4099 1.0522 21.3137 6.08741 18.6981 11.0709ZM25.8736 7.68251C25.8736 9.05355 24.7881 10.1652 23.4504 10.1652H22.3567C22.3739 10.0015 22.3984 9.83774 22.3984 9.67401V4.52678H25.8728V7.68251H25.8736Z" fill="url(#paint0_linear_1826_10116)"/>

  <defs>
    <linearGradient id="paint0_linear_1826_10116" x1="1.55607" y1="14" x2="22.9921" y2="22.7943"
                    gradientUnits="userSpaceOnUse">
      <stop stop-color="#FF41B3"/>
      <stop offset="1" stop-color="#7E00E0"/>
    </linearGradient>
  </defs>
</svg>
