<svg width="28" height="28" viewBox="0 0 28 28" fill="none" xmlns="http://www.w3.org/2000/svg">
<path fill-rule="evenodd" clip-rule="evenodd" d="M9.81063 26.28V21.9865C9.81061 20.8945 10.7478 20.0072 11.9089 19.9998H16.162C17.3287 19.9998 18.2744 20.8893 18.2744 21.9865V26.2933C18.2742 27.2205 19.061 27.9783 20.0466 28H22.882C25.7086 28 28 25.8449 28 23.1866V10.973C27.9849 9.92716 27.4628 8.94509 26.5823 8.30625L16.8851 0.959422C15.1862 -0.319807 12.7712 -0.319807 11.0724 0.959422L1.41772 8.31958C0.533855 8.95583 0.0108856 9.93953 0 10.9863V23.1866C0 25.8449 2.2914 28 5.11797 28H7.95342C8.96347 28 9.78228 27.2299 9.78228 26.28" fill="url(#paint0_linear_1826_10116)"/>
  <defs>
    <linearGradient id="paint0_linear_1826_10116" x1="1.55607" y1="14" x2="22.9921" y2="22.7943" gradientUnits="userSpaceOnUse">
      <stop stop-color="#FF41B3"/>
      <stop offset="1" stop-color="#7E00E0"/>
    </linearGradient>
  </defs>
</svg>
