<svg width="27" height="28" viewBox="0 0 27 28" fill="none" xmlns="http://www.w3.org/2000/svg">
<path d="M20.9586 0C21.6943 0 22.4299 0 23.1649 0C23.2696 0.0205928 23.3743 0.0453041 23.4797 0.0604055C24.1646 0.155132 24.8515 0.235444 25.5344 0.345272C25.9865 0.418033 26.1953 0.672697 26.285 1.158C26.5563 2.63244 26.6343 4.1213 26.5881 5.61977C26.5114 8.09502 25.8226 10.3458 24.3643 12.3104C23.3594 13.664 22.1275 14.7513 20.7648 15.6752C20.4884 15.8626 20.4045 16.0582 20.4077 16.3891C20.4233 17.9638 20.4194 19.5384 20.4129 21.1131C20.4084 22.232 19.931 23.0529 18.9813 23.5588C17.5166 24.3386 16.0518 25.1191 14.5837 25.8927C13.5834 26.4205 12.7352 25.8645 12.7333 24.6846C12.7313 23.1326 12.7333 21.5812 12.732 20.0292C12.732 19.9118 12.7229 19.7938 12.7177 19.6764C12.6916 19.662 12.665 19.6483 12.639 19.6338C12.3202 19.9867 12.0126 20.3518 11.6809 20.6902C10.9908 21.3945 10.0762 21.3863 9.3959 20.6765C8.61212 19.8583 7.83551 19.0318 7.05564 18.2081C7.01726 18.1676 6.97954 18.1271 6.94441 18.0839C6.38829 17.3982 6.40781 16.4728 6.9997 15.8201C7.32231 15.4645 7.65729 15.1213 8.0456 14.7108C7.82965 14.7108 7.71257 14.7108 7.5955 14.7108C6.11446 14.7108 4.63277 14.7135 3.15174 14.7094C2.51887 14.708 2.00633 14.3587 1.92958 13.7683C1.886 13.4334 1.96925 13.0359 2.1104 12.7256C2.81026 11.1846 3.54915 9.6635 4.27374 8.13483C4.77522 7.07568 5.57135 6.52791 6.70701 6.53409C8.18804 6.54233 9.66973 6.53134 11.1508 6.54164C11.381 6.54301 11.515 6.46819 11.6516 6.26707C12.1615 5.51749 12.6617 4.75556 13.2308 4.05746C14.7821 2.15469 16.6964 0.84499 19.0431 0.311637C19.674 0.166801 20.3199 0.101591 20.9586 0ZM18.4889 6.53477C18.4896 7.666 19.3521 8.56934 20.4272 8.56385C21.4835 8.55836 22.3317 7.65433 22.3311 6.53477C22.3304 5.39737 21.4751 4.50227 20.3947 4.50913C19.3358 4.516 18.4883 5.41659 18.4889 6.53546V6.53477Z" fill="url(#paint0_linear_1826_10116)"/>
<path d="M0 27.3851C0.346681 26.3095 0.653685 25.2174 1.0511 24.1631C1.48494 23.0119 1.93374 21.8567 2.50091 20.7762C3.11818 19.6018 4.48734 19.0917 5.79731 19.3794C7.02533 19.6491 8.03935 20.7529 8.24489 22.0441C8.47579 23.4965 7.92683 24.8742 6.67539 25.527C5.38363 26.2017 4.02358 26.7344 2.68239 27.3C2.1022 27.5444 1.49535 27.7174 0.898898 27.9171C0.384406 28.0887 0.227001 28.016 0 27.5217C0 27.4758 0 27.4305 0 27.3845V27.3851Z" fill="url(#paint0_linear_1826_10116)"/>
  <defs>
    <linearGradient id="paint0_linear_1826_10116" x1="1.55607" y1="14" x2="22.9921" y2="22.7943" gradientUnits="userSpaceOnUse">
      <stop stop-color="#FF41B3"/>
      <stop offset="1" stop-color="#7E00E0"/>
    </linearGradient>
  </defs>
</svg>
