<svg width="32" height="32" viewBox="0 0 32 32" fill="none" xmlns="http://www.w3.org/2000/svg">
<rect width="32" height="32" rx="8" fill="#C0BACB"/>
<path d="M22.1681 12.6971C22.3453 12.6971 22.5061 12.7841 22.6332 12.9311C22.7516 13.0881 22.8112 13.2831 22.7939 13.4891C22.7939 13.5571 22.3202 20.2971 22.0496 23.134C21.8802 24.875 20.8826 25.932 19.3861 25.961C18.2355 25.99 17.1108 26 16.0034 26C14.8277 26 13.6779 25.99 12.5618 25.961C11.1155 25.922 10.1171 24.846 9.95626 23.134C9.67789 20.2871 9.21279 13.5571 9.20415 13.4891C9.1955 13.2831 9.25429 13.0881 9.37359 12.9311C9.49116 12.7841 9.6606 12.6971 9.83869 12.6971H22.1681ZM17.8353 6C18.6211 6 19.3231 6.61699 19.5263 7.49699L19.6715 8.22698C19.7891 8.82197 20.2472 9.24297 20.7746 9.24297H24.3663C24.7121 9.24297 25 9.56596 25 9.97696V10.357C25 10.758 24.7121 11.0909 24.3663 11.0909H7.63454C7.28788 11.0909 7 10.758 7 10.357V9.97696C7 9.56596 7.28788 9.24297 7.63454 9.24297H11.2263C11.7528 9.24297 12.2109 8.82197 12.3294 8.22798L12.4651 7.54598C12.676 6.61699 13.3702 6 14.1647 6H17.8353Z" fill="#F5EEFE"/>
</svg>
