<svg width="32" height="32" viewBox="0 0 32 32" fill="none" xmlns="http://www.w3.org/2000/svg">
<rect width="32" height="32" rx="8" fill="#C0BACB"/>
<path d="M25.0669 15.1635V15.9976C25.0658 17.9528 24.4327 19.8552 23.2621 21.4212C22.0914 22.9871 20.4459 24.1327 18.571 24.687C16.6961 25.2414 14.6922 25.1748 12.8582 24.4973C11.0242 23.8197 9.45835 22.5674 8.3942 20.9272C7.33005 19.2871 6.8246 17.3468 6.95325 15.3959C7.08189 13.445 7.83773 11.5879 9.10803 10.1016C10.3783 8.61539 12.0951 7.57958 14.0021 7.1487C15.9092 6.71782 17.9045 6.91496 19.6904 7.7107" stroke="#F5EEFE" stroke-width="3" stroke-linecap="round" stroke-linejoin="round"/>
<path d="M25.0689 8.74219L16.0022 17.8179L13.2822 15.0979" stroke="#F5EEFE" stroke-width="3" stroke-linecap="round" stroke-linejoin="round"/>
</svg>
