<svg width="24" height="24" viewBox="0 0 24 24" fill="none" xmlns="http://www.w3.org/2000/svg">
<path fill-rule="evenodd" clip-rule="evenodd" d="M12 24C18.6274 24 24 18.6274 24 12C24 5.37258 18.6274 0 12 0C5.37258 0 0 5.37258 0 12C0 18.6274 5.37258 24 12 24ZM14.6455 6.05833C13.3652 5.48785 11.9347 5.34652 10.5675 5.65542C9.20031 5.96433 7.96958 6.70691 7.05888 7.77242C6.14819 8.83794 5.60632 10.1693 5.51409 11.5679C5.42187 12.9666 5.78422 14.3575 6.54713 15.5334C7.31003 16.7093 8.43259 17.6071 9.74741 18.0928C11.0622 18.5786 12.4988 18.6263 13.843 18.2289C15.1871 17.8314 16.3668 17.0102 17.2061 15.8875C18.0453 14.7649 18.4992 13.401 18.5 11.9993V11.3099C18.5 10.7576 18.9477 10.3099 19.5 10.3099C20.0523 10.3099 20.5 10.7576 20.5 11.3099V11.9999C20.499 13.8329 19.9054 15.6169 18.8079 17.085C17.7104 18.5531 16.1678 19.6271 14.4101 20.1468C12.6523 20.6665 10.7737 20.6041 9.0543 19.9689C7.33493 19.3336 5.86696 18.1597 4.86932 16.622C3.87168 15.0843 3.39782 13.2653 3.51843 11.4363C3.63903 9.60735 4.34763 7.86635 5.53854 6.47298C6.72945 5.07962 8.33887 4.10855 10.1268 3.70459C11.9147 3.30064 13.7852 3.48546 15.4595 4.23147C15.964 4.45625 16.1907 5.04743 15.9659 5.5519C15.7412 6.05637 15.15 6.28311 14.6455 6.05833ZM20.2068 5.29254C20.5975 5.68287 20.5978 6.31603 20.2075 6.70675L12.7075 14.2143C12.52 14.4019 12.2656 14.5074 12.0002 14.5075C11.7349 14.5076 11.4805 14.4022 11.2929 14.2146L9.04289 11.9646C8.65237 11.5741 8.65237 10.9409 9.04289 10.5504C9.43342 10.1599 10.0666 10.1599 10.4571 10.5504L11.9996 12.0929L18.7925 5.29325C19.1829 4.90253 19.816 4.90221 20.2068 5.29254Z" fill="#C0BACB"/>
</svg>
