<svg width="28" height="28" viewBox="0 0 28 28" fill="none" xmlns="http://www.w3.org/2000/svg">
<path fill="#C0BACB" d="M26.5569 20.6239C26.5569 20.6239 26.5443 20.6239 26.5316 20.6112C26.5316 20.6112 26.5316 20.6112 26.5062 20.6112C26.5062 20.6112 26.4809 20.5859 26.4682 20.5859C26.3922 20.5225 26.2781 20.4211 26.1387 20.2817C25.8725 19.9901 25.4542 19.4831 25.0232 18.7099C24.2247 17.2522 23.274 14.6031 23.274 10.2808C23.274 7.91046 22.3487 5.67959 20.6756 4.00643C19.5601 2.89099 18.1912 2.10512 16.6701 1.6995C16.4293 0.786873 15.2251 0.0136719 14.4012 0.0136719C13.5139 0.0136719 12.4239 0.748846 12.1703 1.68683C10.6366 2.07977 9.24232 2.87832 8.12689 4.00643C6.45373 5.67959 5.52842 7.91046 5.52842 10.2808C5.52842 14.6031 4.57777 17.2396 3.77922 18.7099C3.34825 19.4958 2.94264 20.0028 2.66378 20.2817C2.52435 20.4338 2.41027 20.5225 2.28352 20.6366C1.8272 20.9535 1.62439 21.5239 1.7765 22.0562C1.94128 22.5886 2.43562 22.9562 2.99334 22.9562H25.8091C26.3668 22.9562 26.8612 22.5886 27.0259 22.0562C27.1907 21.5239 26.9879 20.9661 26.5443 20.6493L26.5569 20.6239Z"/>
<path fill="#C0BACB" d="M16.6166 24.1943H12.2309C11.7746 24.1943 11.3563 24.4352 11.1281 24.8281C10.9 25.221 10.9 25.7027 11.1281 26.0956C11.4577 26.666 11.9394 27.1477 12.5224 27.4773C13.1055 27.8068 13.752 27.9843 14.4238 27.9843C15.0956 27.9843 15.742 27.8068 16.3251 27.4773C16.9081 27.1477 17.3771 26.666 17.7194 26.0956C17.9475 25.7027 17.9475 25.221 17.7194 24.8281C17.4912 24.4352 17.0729 24.1943 16.6166 24.1943Z"/>
</svg>
