<svg width="22" height="22" viewBox="0 0 22 22" fill="none" xmlns="http://www.w3.org/2000/svg">
<g id="Frame 37693">
<path id="Subtract" fill-rule="evenodd" clip-rule="evenodd" d="M11 21.2857C16.6807 21.2857 21.2857 16.6806 21.2857 10.9999C21.2857 5.3193 16.6807 0.714233 11 0.714233C5.31937 0.714233 0.714294 5.3193 0.714294 10.9999C0.714294 16.6806 5.31937 21.2857 11 21.2857ZM10.2154 18.3968C10.4262 18.6084 10.6878 18.7142 11 18.7142C11.3123 18.7142 11.5742 18.6084 11.7858 18.3968C11.9966 18.186 12.1021 17.9244 12.1021 17.6122V12.102H17.6123C17.9245 12.102 18.1861 11.9962 18.3969 11.7846C18.6085 11.5737 18.7143 11.3122 18.7143 10.9999C18.7143 10.6877 18.6085 10.4258 18.3969 10.2142C18.1861 10.0033 17.9245 9.89791 17.6123 9.89791H12.1021V4.3877C12.1021 4.07546 11.9966 3.81354 11.7858 3.60195C11.5742 3.39109 11.3123 3.28566 11 3.28566C10.6878 3.28566 10.4262 3.39109 10.2154 3.60195C10.0038 3.81354 9.89797 4.07546 9.89797 4.3877V9.89791H4.38776C4.07552 9.89791 3.8136 10.0033 3.60201 10.2142C3.39115 10.4258 3.28572 10.6877 3.28572 10.9999C3.28572 11.3122 3.39115 11.5737 3.60201 11.7846C3.8136 11.9962 4.07552 12.102 4.38776 12.102H9.89797V17.6122C9.89797 17.9244 10.0038 18.186 10.2154 18.3968Z" fill="#C0BACB"/>
</g>
</svg>
