<svg width="24" height="24" viewBox="0 0 24 24" fill="none" xmlns="http://www.w3.org/2000/svg">
<g id="_&#208;&#168;&#208;&#176;&#209;&#128;_1">
<path id="Vector" d="M22.7631 17.6776C22.7631 17.6776 22.7522 17.6776 22.7414 17.6668C22.7414 17.6668 22.7414 17.6668 22.7197 17.6668C22.7197 17.6668 22.6979 17.645 22.6871 17.645C22.6219 17.5907 22.5241 17.5038 22.4046 17.3843C22.1764 17.1344 21.8179 16.6998 21.4485 16.0371C20.764 14.7876 19.9492 12.5169 19.9492 8.81208C19.9492 6.78039 19.156 4.86822 17.7219 3.43408C16.7658 2.47799 15.5924 1.80439 14.2887 1.45672C14.0823 0.674462 13.0501 0.0117188 12.3439 0.0117188C11.5834 0.0117188 10.649 0.641868 10.4317 1.44585C9.11711 1.78266 7.922 2.46713 6.96591 3.43408C5.53178 4.86822 4.73866 6.78039 4.73866 8.81208C4.73866 12.5169 3.92381 14.7768 3.23934 16.0371C2.86994 16.7107 2.52227 17.1453 2.28325 17.3843C2.16374 17.5147 2.06596 17.5907 1.95731 17.6885C1.56618 17.9601 1.39235 18.449 1.52272 18.9053C1.66396 19.3617 2.08768 19.6767 2.56573 19.6767H22.1221C22.6001 19.6767 23.0239 19.3617 23.1651 18.9053C23.3063 18.449 23.1325 17.971 22.7522 17.6994L22.7631 17.6776Z" fill="#C0BACB"/>
<path id="Vector_2" d="M14.2428 20.738H10.4836C10.0925 20.738 9.73396 20.9445 9.5384 21.2813C9.34283 21.6181 9.34283 22.0309 9.5384 22.3677C9.82088 22.8566 10.2337 23.2695 10.7335 23.552C11.2333 23.8345 11.7874 23.9866 12.3632 23.9866C12.939 23.9866 13.4931 23.8345 13.9929 23.552C14.4927 23.2695 14.8947 22.8566 15.188 22.3677C15.3836 22.0309 15.3836 21.6181 15.188 21.2813C14.9924 20.9445 14.6339 20.738 14.2428 20.738Z" fill="#C0BACB"/>
</g>
</svg>
