<svg width="24" height="24" viewBox="0 0 24 24" fill="none" xmlns="http://www.w3.org/2000/svg">
<g id="bottom menu icon">
<g id="Iconly/Bold/Search">
<g id="Search">
<path id="Vector" d="M17.7813 17.8158C18.1789 17.4209 18.8162 17.4209 19.2137 17.8158L21.8414 19.9368H21.887C22.4186 20.4742 22.4186 21.3453 21.887 21.8827C21.3554 22.42 20.4935 22.42 19.9619 21.8827L17.7813 19.3835L17.6986 19.2902C17.5444 19.095 17.4593 18.8518 17.4593 18.5996C17.4593 18.3055 17.5752 18.0234 17.7813 17.8158ZM10.537 1.71423C12.8769 1.71423 15.121 2.65377 16.7756 4.32615C18.4302 5.99853 19.3597 8.26677 19.3597 10.6319C19.3597 15.5569 15.4097 19.5495 10.537 19.5495C5.66436 19.5495 1.71429 15.5569 1.71429 10.6319C1.71429 5.7068 5.66436 1.71423 10.537 1.71423Z" fill="#C0BACB"/>
</g>
</g>
</g>
</svg>
