<svg width="133" height="32" viewBox="0 0 133 32" fill="none" xmlns="http://www.w3.org/2000/svg">
<path d="M28.9609 9.0104C27.5863 5.49326 24.922 2.72025 21.455 1.20082C17.9894 -0.317136 14.1382 -0.398826 10.6116 0.972084C4.94193 3.17623 1.31853 8.72671 1.59702 14.7866C1.63128 15.5471 2.28358 16.1338 3.04013 16.0996C3.80263 16.0655 4.39239 15.4208 4.35664 14.6604C4.13325 9.78274 7.04924 5.31503 11.6139 3.54013C14.4524 2.43657 17.5531 2.50192 20.3425 3.7243C23.1319 4.94668 25.2779 7.17905 26.3844 10.01C28.6675 15.8545 25.7575 22.464 19.8972 24.741C18.4377 25.3083 16.8978 25.5683 15.3594 25.5133C15.4904 25.8906 15.3772 26.4149 14.9856 26.5827C14.305 26.8753 13.8493 27.4456 13.474 28.0903C14.2335 28.215 14.996 28.2774 15.7585 28.2774C17.5039 28.2774 19.2434 27.9521 20.8995 27.309C28.1805 24.4795 31.795 16.2704 28.9579 9.00891L28.9609 9.0104Z" fill="url(#paint0_linear_2142_158618)"/>
<path d="M26.3871 10.0118C28.6701 15.8564 25.7601 22.4659 19.8998 24.7428C18.4403 25.3102 16.9004 25.5701 15.362 25.5151C15.493 25.8924 15.3799 26.4167 14.9882 26.5845C14.3076 26.8771 13.8519 27.4475 13.4766 28.0921C14.2361 28.2168 14.9986 28.2792 15.7611 28.2792C17.5065 28.2792 19.246 27.954 20.9021 27.3108C28.1831 24.4814 31.7976 16.2723 28.9605 9.01074L26.3856 10.0118H26.3871Z" fill="url(#paint1_linear_2142_158618)"/>
<path d="M9.87793 31.6798C9.57263 31.6798 9.26435 31.5966 8.98734 31.4288C8.30973 31.0159 8.00889 30.2019 8.25462 29.4489L10.9264 21.2739H7.28511C6.76833 21.2739 6.28432 21.0437 5.95966 20.6442C5.63351 20.2432 5.50841 19.7248 5.61564 19.2198L5.62904 19.1544L5.64989 19.0906L9.21222 7.8708C9.41179 7.13708 10.0894 6.61426 10.8594 6.61426H18.2938C18.8627 6.61426 19.3914 6.89498 19.7101 7.36581C20.0273 7.83664 20.0899 8.43075 19.8754 8.95654L17.3019 15.2734H22.8331C23.5241 15.2734 24.1436 15.6848 24.4087 16.322C24.6738 16.9592 24.5309 17.687 24.0439 18.1756L11.0872 31.1792C10.7566 31.5105 10.3202 31.6827 9.87793 31.6827V31.6798ZM8.7297 18.5173H12.3829C12.928 18.5173 13.4447 18.7802 13.7634 19.2198C14.0836 19.6594 14.1745 20.2298 14.0047 20.7467L12.2578 26.0892L20.2924 18.0256H15.7308C15.1619 18.0256 14.6332 17.7449 14.3145 17.2741C13.9972 16.8033 13.9347 16.2091 14.1492 15.6834L16.7226 9.36796H11.6353L8.7297 18.5173Z" fill="url(#paint2_linear_2142_158618)"/>
<path d="M50.9652 14.5086C50.5629 14.1419 50.0453 13.8663 49.4186 13.6836C49.8902 13.4799 50.2802 13.2129 50.5844 12.8831C51.1106 12.3128 51.3774 11.5683 51.3774 10.67C51.3774 9.36258 50.8616 8.40401 49.8472 7.82258C48.885 7.25839 47.5162 6.97168 45.7794 6.97168H37.3672L37.4371 13.9463L37.3672 20.9399H45.7353C47.5898 20.9399 49.0856 20.6145 50.1809 19.9727C51.343 19.2867 51.9324 18.2512 51.9324 16.894C51.9324 15.8813 51.6061 15.0777 50.9646 14.508L50.9652 14.5086ZM45.5347 15.0673C48.4294 15.0673 48.4294 16.227 48.4294 16.6633C48.4294 17.4699 48.0773 18.2943 45.4679 18.2943H40.8923L40.8549 15.0673H45.5353H45.5347ZM47.2132 12.1799C46.8054 12.3755 46.2253 12.4789 45.5347 12.4789H40.8549L40.8917 9.57915H45.4237C46.1363 9.57915 46.738 9.67821 47.1623 9.86648C47.7008 10.1046 47.9627 10.4811 47.9627 11.0176C47.9627 11.5541 47.718 11.9381 47.2139 12.1799H47.2132Z" fill="url(#paint3_linear_2142_158618)"/>
<path d="M64.892 6.97132L64.9405 10.9785L64.8963 15.2712C64.8828 16.3479 64.5026 17.1582 64.0077 17.6787C63.5183 18.1937 62.3353 18.4551 61.3381 18.4551C60.2183 18.4551 59.1721 18.1943 58.6864 17.6793C58.1951 17.1588 57.8167 16.3485 57.8026 15.2699L57.7358 10.9785L57.8082 6.9707H54.207L54.2555 10.9779L54.2113 14.9808C54.1807 17.0517 54.8436 18.6323 55.9426 19.6801C57.0336 20.707 59.0114 21.2281 61.3388 21.2281C63.5435 21.2281 65.6599 20.707 66.7368 19.6789C67.8339 18.633 68.4975 17.0524 68.4662 14.982L68.422 10.9779L68.4705 6.9707H64.8933L64.892 6.97132Z" fill="url(#paint4_linear_2142_158618)"/>
<path d="M85.8412 9.44318V6.97168H71.1987V9.74527H81.0656L71.043 18.4494V20.9399H85.9522V18.1473H75.8185L85.8412 9.44318Z" fill="url(#paint5_linear_2142_158618)"/>
<path d="M103.302 9.44318V6.97168H88.6597V9.74527H98.5266L88.5039 18.4494V20.9399H103.413V18.1473H93.2788L103.302 9.44318Z" fill="url(#paint6_linear_2142_158618)"/>
<path d="M125.455 6.97168H120.794L115.857 17.6317L110.92 6.97168H106.259L106.137 20.9399H109.51L109.448 11.5203L114.017 20.9399H117.697L122.204 11.5141V20.9399H125.577L125.455 6.97168Z" fill="url(#paint7_linear_2142_158618)"/>
<path d="M132.368 6.97168H128.77L128.846 13.9463L128.77 20.9399H132.368L132.292 13.9493L132.368 6.97168Z" fill="url(#paint8_linear_2142_158618)"/>
<defs>
<linearGradient id="paint0_linear_2142_158618" x1="10.9292" y1="0.850215" x2="21.172" y2="27.2061" gradientUnits="userSpaceOnUse">
<stop stop-color="#EF8FD5"/>
<stop offset="1" stop-color="#EB33CF"/>
</linearGradient>
<linearGradient id="paint1_linear_2142_158618" x1="27.571" y1="17.2139" x2="10.327" y2="23.449" gradientUnits="userSpaceOnUse">
<stop offset="0.07" stop-color="#EF8FD5" stop-opacity="0"/>
<stop offset="1" stop-opacity="0.4"/>
</linearGradient>
<linearGradient id="paint2_linear_2142_158618" x1="5.57691" y1="19.1455" x2="24.5413" y2="19.1455" gradientUnits="userSpaceOnUse">
<stop stop-color="#EF8FD5"/>
<stop offset="1" stop-color="#EB33CF"/>
</linearGradient>
<linearGradient id="paint3_linear_2142_158618" x1="44.3295" y1="6.97168" x2="44.3295" y2="20.9399" gradientUnits="userSpaceOnUse">
<stop stop-color="#555A66"/>
<stop offset="1"/>
</linearGradient>
<linearGradient id="paint4_linear_2142_158618" x1="61.0203" y1="6.9707" x2="61.0203" y2="21.2281" gradientUnits="userSpaceOnUse">
<stop stop-color="#555A66"/>
<stop offset="1"/>
</linearGradient>
<linearGradient id="paint5_linear_2142_158618" x1="78.4842" y1="6.97168" x2="78.4842" y2="20.9399" gradientUnits="userSpaceOnUse">
<stop stop-color="#555A66"/>
<stop offset="1"/>
</linearGradient>
<linearGradient id="paint6_linear_2142_158618" x1="95.9448" y1="6.97168" x2="95.9448" y2="20.9399" gradientUnits="userSpaceOnUse">
<stop stop-color="#555A66"/>
<stop offset="1"/>
</linearGradient>
<linearGradient id="paint7_linear_2142_158618" x1="115.84" y1="6.97168" x2="115.84" y2="20.9399" gradientUnits="userSpaceOnUse">
<stop stop-color="#555A66"/>
<stop offset="1"/>
</linearGradient>
<linearGradient id="paint8_linear_2142_158618" x1="130.565" y1="6.97168" x2="130.565" y2="20.9399" gradientUnits="userSpaceOnUse">
<stop stop-color="#555A66"/>
<stop offset="1"/>
</linearGradient>
</defs>
</svg>
