<svg width="27" height="28" viewBox="0 0 27 28" fill="none" xmlns="http://www.w3.org/2000/svg">
  <path d="M19.2791 3.15734e-06C19.86 -0.00139297 20.3193 0.460376 20.3207 1.07607L20.322 2.12554C24.0912 2.42779 26.5811 5.05567 26.5851 9.08565L26.6 20.8817C26.6054 25.2755 23.9075 27.979 19.583 27.986L7.04939 28C2.75195 28.0056 0.0202802 25.2378 0.0148763 20.8314L6.43546e-06 9.17381C-0.00538836 5.11724 2.39664 2.49636 6.16586 2.14233L6.16451 1.09286C6.16316 0.477167 6.60898 0.0139993 7.20341 0.0139993C7.79783 0.0126 8.24365 0.474369 8.245 1.09006L8.24636 2.06957L18.2415 2.05837L18.2402 1.07887C18.2388 0.463174 18.6846 0.00140563 19.2791 3.15734e-06ZM18.8451 19.8686H18.8316C18.2101 19.884 17.7116 20.4172 17.7251 21.0609C17.7265 21.7045 18.2277 22.2349 18.8491 22.2489C19.4827 22.2475 19.9961 21.7143 19.9947 21.0567C19.9947 20.399 19.48 19.8686 18.8451 19.8686ZM7.71305 19.87C7.0916 19.898 6.60525 20.4312 6.6066 21.0748C6.63497 21.7185 7.14834 22.2223 7.76979 22.1929C8.37908 22.1649 8.86408 21.6318 8.83571 20.9881C8.8222 20.3584 8.32099 19.8686 7.71305 19.87ZM13.2791 19.863C12.6576 19.8924 12.1726 20.4242 12.1726 21.0678C12.201 21.7115 12.7144 22.2139 13.3358 22.1859C13.9437 22.1565 14.4301 21.6248 14.4017 20.9797C14.3882 20.3514 13.887 19.8617 13.2791 19.863ZM7.70629 14.8326C7.08485 14.8606 6.59985 15.3937 6.60119 16.0374C6.62822 16.681 7.14294 17.1848 7.76439 17.1554C8.37232 17.1274 8.85732 16.5943 8.82895 15.9506C8.81544 15.3209 8.31558 14.8312 7.70629 14.8326ZM13.2737 14.7836C12.6522 14.8116 12.1659 15.3447 12.1672 15.9884C12.1942 16.6321 12.7089 17.1344 13.3304 17.1064C13.9383 17.077 14.4233 16.5453 14.3963 15.9016C14.3815 15.272 13.8816 14.7822 13.2737 14.7836ZM18.8397 14.7906C18.2182 14.8046 17.7319 15.3223 17.7332 15.966V15.9814C17.7467 16.6251 18.2601 17.1134 18.8829 17.0994C19.4908 17.084 19.9758 16.5509 19.9623 15.9072C19.934 15.2915 19.4463 14.7892 18.8397 14.7906ZM18.2442 4.21329L8.24906 4.22449L8.25041 5.35652C8.25041 5.95962 7.80594 6.43538 7.21151 6.43538C6.61708 6.43678 6.16991 5.96242 6.16991 5.35932L6.16856 4.28186C3.53416 4.55193 2.07646 6.13593 2.08051 9.17101L2.08187 9.60619L24.506 9.57821V9.08845C24.4479 6.07996 22.9726 4.50155 20.3247 4.26647L20.3261 5.34393C20.3261 5.94563 19.8681 6.42279 19.2872 6.42279C18.6927 6.42419 18.2456 5.94842 18.2456 5.34673L18.2442 4.21329Z"
        fill="url(#paint0_linear_1826_10116)"/>
  <defs>
    <linearGradient id="paint0_linear_1826_10116" x1="1.55607" y1="14" x2="22.9921" y2="22.7943"
                    gradientUnits="userSpaceOnUse">
      <stop stop-color="#FF41B3"/>
      <stop offset="1" stop-color="#7E00E0"/>
    </linearGradient>
  </defs>
</svg>
