<svg width="27" height="28" viewBox="0 0 27 28" fill="none" xmlns="http://www.w3.org/2000/svg">
<path fill-rule="evenodd" clip-rule="evenodd" d="M0.0303078 1.55481C0.0200687 1.58143 0.00982957 1.60805 0 1.63479V7.32264C0.00502704 7.33499 0.0105035 7.34724 0.0159835 7.35949L0.015985 7.3595C0.0282993 7.38704 0.0406309 7.41463 0.047919 7.44348C0.285934 8.37588 0.997873 8.98272 1.95731 8.98799C4.76083 9.00277 7.56435 9.00488 10.3673 8.98799C11.4869 8.98113 12.3157 8.15742 12.332 7.03769C12.3563 5.34437 12.3557 3.64946 12.332 1.95614C12.3168 0.848016 11.4711 0.00953422 10.3953 0.00584047C7.57436 -0.00313007 4.75346 -0.00101935 1.93256 0.00584047C1.07475 0.00795119 0.347018 0.57204 0.0884658 1.39416C0.0712641 1.44834 0.050786 1.50158 0.0303078 1.55481ZM1.68362 27.9995H10.6788V28C10.735 27.9787 10.7922 27.9594 10.8493 27.94L10.8493 27.94L10.8493 27.94C10.9756 27.8972 11.1019 27.8544 11.2184 27.7908C11.993 27.3678 12.3492 26.6671 12.3492 25.7412V16.7241C12.3492 16.3713 12.3494 16.0185 12.3496 15.6656V15.6655V15.6655V15.6645C12.35 14.8704 12.3505 14.0762 12.3487 13.2823C12.345 11.8997 11.5182 11.0024 10.2414 11.0012C8.36359 10.9996 6.48606 11 4.6086 11.0003C3.8038 11.0005 2.99902 11.0007 2.19424 11.0007C1.01228 11.0007 0.361491 11.5286 0.0258208 12.7578C0.0225764 12.7699 0.0158792 12.7806 0.00910373 12.7915L0.00910186 12.7915C0.00597387 12.7965 0.00282925 12.8016 0 12.8068V26.2355C0.0247743 26.303 0.047914 26.3714 0.0710573 26.4398C0.122245 26.5911 0.173451 26.7424 0.242399 26.8837C0.548561 27.5126 1.06287 27.8393 1.68362 27.9995ZM15.9272 28C15.8873 27.9873 15.8471 27.975 15.8069 27.9627C15.7226 27.9369 15.6383 27.9111 15.5559 27.8807C14.7854 27.5972 14.2719 26.898 14.264 26.04C14.2487 24.3455 14.2414 22.6505 14.2661 20.956C14.2825 19.8097 15.1446 19.007 16.3127 19.0033C17.6433 18.9989 18.9741 18.9999 20.3048 19.0009H20.3049C20.8751 19.0013 21.4453 19.0018 22.0154 19.0018C22.2755 19.0018 22.5356 19.0015 22.7957 19.0012C23.3678 19.0007 23.9398 19.0001 24.5118 19.0023C25.7737 19.007 26.5985 19.8376 26.5995 21.1028C26.6002 22.1508 26.6 23.1985 26.5998 24.2462V24.2463L26.5995 25.8182C26.5995 27.001 26.0997 27.6589 24.9632 27.9752C24.9521 27.9785 24.9419 27.9849 24.9318 27.9913L24.9317 27.9914C24.927 27.9944 24.9222 27.9974 24.9174 28H15.9272ZM26.5999 10.5754C26.5998 9.88654 26.5998 9.19768 26.5998 8.50877L26.5992 8.5082C26.5992 7.81928 26.5993 7.13043 26.5994 6.44159C26.5995 5.06399 26.5996 3.68647 26.5992 2.3087C26.5987 0.881691 25.7877 0.00199518 24.4713 0.00199518H16.3998C15.0655 0.0025653 14.2508 0.878841 14.2508 2.31897C14.2497 6.44208 14.2497 10.5658 14.2508 14.6894C14.2513 16.109 15.0734 17.0001 16.3829 17.0007C19.082 17.0024 21.7817 17.0024 24.4808 17.0007C25.7777 17.0001 26.5998 16.109 26.5998 14.7083C26.6001 13.3305 26.6 11.953 26.5999 10.5754Z" fill="url(#paint0_linear_1826_10116)"/>
    <defs>
    <linearGradient id="paint0_linear_1826_10116" x1="1.55607" y1="14" x2="22.9921" y2="22.7943" gradientUnits="userSpaceOnUse">
    <stop stop-color="#FF41B3"/>
    <stop offset="1" stop-color="#7E00E0"/>
    </linearGradient>
    </defs>
</svg>
