<svg width="27" height="28" viewBox="0 0 27 28" fill="none" xmlns="http://www.w3.org/2000/svg">
  <path fill-rule="evenodd" clip-rule="evenodd"
        d="M26.6 10.5548C26.6 11.1047 26.1592 11.5319 25.6802 11.7514C24.8588 12.1276 24.2824 12.9921 24.2824 14C24.2824 15.0094 24.8553 15.8749 25.6798 16.2503C26.1593 16.4686 26.6 16.8953 26.6 17.4452V21.9061C26.6 25.2717 24.0081 28 20.8108 28H5.78919C2.59189 28 0 25.2717 0 21.9061V17.4452C0 16.8953 0.440445 16.4688 0.920795 16.2525C1.75188 15.8784 2.32703 15.0114 2.32703 14C2.32703 12.9901 1.74829 12.1241 0.920409 11.7491C0.440524 11.5317 0 11.1047 0 10.5548V6.09388C0 2.72831 2.59189 0 5.78919 0H20.8108C24.0081 0 26.6 2.72831 26.6 6.09388V10.5548ZM17.9151 18.733L17.415 15.5522L19.5328 13.2913C20.35 12.4188 19.8987 10.8994 18.7689 10.7196L15.8443 10.2542L14.5354 7.35282C14.0454 6.26675 12.9112 6.20226 12.137 7.24998C12.0873 7.31728 12.0473 7.39116 12.0129 7.46743L10.7556 10.2542L7.83107 10.7196C6.70125 10.8994 6.24997 12.4188 7.06724 13.2913L9.18495 15.5522L8.68485 18.733C8.49117 19.9648 9.67232 20.905 10.6834 20.3237L13.3 18.8194L15.9166 20.3237C16.9277 20.905 18.1088 19.9648 17.9151 18.733Z"
        fill="url(#paint0_linear_1826_10116)"/>

  <defs>
    <linearGradient id="paint0_linear_1826_10116" x1="1.55607" y1="14" x2="22.9921" y2="22.7943" gradientUnits="userSpaceOnUse">
      <stop stop-color="#FF41B3"/>
      <stop offset="1" stop-color="#7E00E0"/>
    </linearGradient>
  </defs>
</svg>
