<svg width="28" height="28" viewBox="0 0 28 28" fill="none" xmlns="http://www.w3.org/2000/svg">
  <path d="M20.3218 0C25.1502 0 28 3.08714 28 8.37169H22.0764V8.42561C19.3273 8.42561 17.0987 10.8399 17.0987 13.818C17.0987 16.7961 19.3273 19.2104 22.0764 19.2104H28V19.6957C28 24.9129 25.1502 28 20.3218 28H7.67822C2.84978 28 0 24.9129 0 19.6957V8.30429C0 3.08714 2.84978 0 7.67822 0H20.3218ZM26.9547 10.6904C27.532 10.6904 28 11.1974 28 11.8228V15.7593C27.9933 16.3816 27.5292 16.8844 26.9547 16.8917H22.1884C20.7967 16.912 19.5797 15.8797 19.264 14.4112C19.1059 13.4996 19.3278 12.5589 19.8703 11.8412C20.4128 11.1236 21.2203 10.7023 22.0764 10.6904H26.9547ZM22.7484 12.5104H22.288C22.0053 12.5067 21.7331 12.6259 21.532 12.8412C21.3309 13.0565 21.2178 13.35 21.2178 13.6562C21.2177 14.2988 21.6949 14.8217 22.288 14.8291H22.7484C23.3395 14.8291 23.8187 14.31 23.8187 13.6697C23.8187 13.0294 23.3395 12.5104 22.7484 12.5104ZM14.5351 6.05296H6.63289C6.04665 6.05292 5.56948 6.56382 5.56267 7.19884C5.56267 7.84136 6.03981 8.3643 6.63289 8.37169H14.5351C15.1262 8.37169 15.6053 7.85263 15.6053 7.21233C15.6053 6.57203 15.1262 6.05296 14.5351 6.05296Z"
        fill="url(#paint0_linear_1826_10116)"/>
  <defs>
    <linearGradient id="paint0_linear_1826_10116" x1="1.55607" y1="14" x2="22.9921" y2="22.7943" gradientUnits="userSpaceOnUse">
      <stop stop-color="#FF41B3"/>
      <stop offset="1" stop-color="#7E00E0"/>
    </linearGradient>
  </defs>
</svg>
