<svg width="8" height="7" viewBox="0 0 8 7" fill="none" xmlns="http://www.w3.org/2000/svg">
<path d="M2.54624 3.08309C2.51809 3.00339 2.57623 2.91992 2.65925 2.91992H5.31921C5.40223 2.91992 5.46092 3.0023 5.43291 3.08206C5.19295 3.76535 4.39722 6.06273 4.10133 6.91737C4.06381 7.02575 3.91459 7.02508 3.87713 6.91668C3.58626 6.07479 2.81154 3.83415 2.54624 3.08309Z" fill="black"/>
<path d="M5.42338 2.14644C5.45617 2.22668 5.39809 2.31438 5.31289 2.31438H2.66666C2.58131 2.31438 2.52322 2.2264 2.5563 2.14611C2.72285 1.74193 3.15093 0.703333 3.41134 0.0743815C3.43002 0.0292646 3.47336 -3.06977e-05 3.52136 2.414e-08L4.46592 0.000604675C4.514 0.000635453 4.55737 0.0300844 4.57594 0.0753463C4.83217 0.699894 5.258 1.74172 5.42338 2.14644Z" fill="black"/>
<path d="M0.0293727 3.12337C-0.0378541 3.04429 0.0178236 2.92182 0.120406 2.92188C0.672602 2.92219 1.28447 2.92324 1.82135 2.92199C1.86841 2.92188 1.91052 2.94856 1.92956 2.99248C2.31653 3.88542 3.02112 5.81081 3.38875 6.82859C3.43511 6.95694 3.272 7.05348 3.18641 6.94821C2.45667 6.05069 0.982052 4.24396 0.0293727 3.12337Z" fill="black"/>
<path d="M7.97063 3.12337C8.03785 3.04429 7.98218 2.92182 7.87959 2.92188C7.3274 2.92219 6.71553 2.92324 6.17865 2.92199C6.13159 2.92188 6.08948 2.94856 6.07044 2.99248C5.68347 3.88542 4.97888 5.81081 4.61125 6.82859C4.56489 6.95694 4.728 7.05348 4.81359 6.94821C5.54333 6.05069 7.01795 4.24396 7.97063 3.12337Z" fill="black"/>
<path d="M6.1673 0.00585774C6.20383 0.00539869 6.23837 0.0214521 6.26182 0.0500428L7.95601 2.11581C8.02105 2.19512 7.9658 2.31584 7.86447 2.31584H6.20027C6.15378 2.31584 6.11151 2.28829 6.09196 2.24524L5.15281 0.17713C5.11597 0.0959879 5.17447 0.00329562 5.2621 0.00390928C5.51993 0.00571483 5.97261 0.00830431 6.1673 0.00585774Z" fill="black"/>
<path d="M1.91864 0.00585774C1.88211 0.00539869 1.84757 0.0214521 1.82412 0.0500428L0.129924 2.11581C0.0648854 2.19512 0.120135 2.31584 0.221468 2.31584H1.88566C1.93216 2.31584 1.97442 2.28829 1.99397 2.24524L2.93312 0.17713C2.96997 0.0959879 2.91147 0.00329562 2.82384 0.00390928C2.56601 0.00571483 2.11333 0.00830431 1.91864 0.00585774Z" fill="black"/>
</svg>
