<svg width="64" height="58" viewBox="0 0 64 58" fill="none" xmlns="http://www.w3.org/2000/svg">
<g filter="url(#filter0_d_1542_29937)">
<path d="M22.5304 53C19.3812 53 16.4391 51.3459 14.8445 48.6741L5.22441 32.5532C3.6067 29.8432 3.59094 26.464 5.18342 23.7329L14.6353 7.51987C16.2173 4.80569 19.1731 3.11026 22.3496 3.09438L41.4237 3.00013C44.5887 2.98318 47.5529 4.64261 49.1549 7.32607L58.776 23.4459C60.3926 26.1558 60.4095 29.5351 58.817 32.2662L49.364 48.4803C47.7821 51.1934 44.8262 52.8888 41.6497 52.9047L22.5767 52.9989C22.562 52.9989 22.5462 52.9989 22.5315 52.9989L22.5304 53Z" fill="#C0BACB"/>
</g>
<path d="M48.8987 15.0687C48.1418 14.0468 46.2183 14.0923 44.1433 15.4044C42.0683 16.7165 40.1006 18.1197 36.7842 22.0866C33.4679 26.0535 32.8593 28.4585 32.7846 28.8599C32.71 29.2612 32.4851 30.1147 32.4851 30.1147C32.4851 30.1147 32.2654 28.4807 32.2738 27.4906C32.2769 27.1422 32.3358 26.9357 32.4441 26.7842C32.6101 26.5523 32.6564 25.9709 32.6617 25.7856C32.668 25.5992 32.5765 25.3589 32.4094 25.3176C32.278 25.2858 32.2538 25.1926 32.2433 25.0634C32.2959 24.9236 32.5912 23.261 33.2629 21.8473C34.0113 20.2726 35.1497 18.9298 35.3631 18.755C35.4409 18.6904 35.4524 18.5761 35.3883 18.4977C35.3242 18.4193 35.2107 18.4077 35.1329 18.4723C34.8817 18.6799 33.7254 20.0491 32.956 21.6715C32.2265 23.2102 31.8764 25.0094 31.8397 25.1142C31.7987 25.0941 31.5706 25.0941 31.5285 25.1142C31.4907 25.0073 31.1228 23.2748 30.3807 21.7128C29.6196 20.1105 28.4823 18.6777 28.2342 18.4723C28.1565 18.4088 28.0419 18.4193 27.9788 18.4977C27.9157 18.5761 27.9262 18.6915 28.004 18.755C28.2143 18.9277 29.3348 20.3372 30.0748 21.8939C30.757 23.3288 31.0692 24.9215 31.1228 25.0645C31.1123 25.1926 31.0881 25.2868 30.9567 25.3186C30.7896 25.3589 30.6981 25.6003 30.7044 25.7867C30.7107 25.9731 30.7065 26.5481 30.922 26.7853C31.0261 26.9007 31.0618 27.1432 31.0608 27.5298C31.0566 28.5167 30.8821 30.1169 30.8821 30.1169C30.8821 30.1169 30.6571 29.2633 30.5825 28.862C30.5079 28.4606 29.8982 26.0557 26.5829 22.0887C23.2665 18.1218 21.2977 16.7186 19.2238 15.4065C17.1489 14.0945 15.2263 14.0489 14.4685 15.0708C13.7116 16.0928 13.2113 17.7257 13.8777 19.8617C14.5441 21.9976 14.6198 23.0047 14.8921 25.217C15.1643 27.4292 15.4523 28.8482 17.315 29.4582C19.1776 30.0682 22.8114 30.2672 22.8114 30.2672C22.8114 30.2672 17.1068 31.9277 15.8907 34.6303C11.4285 44.555 23.1646 48.217 28.126 41.2965C29.1887 39.814 30.8211 36.7355 31.1396 35.7432C31.1396 35.7432 31.168 41.9213 31.683 41.9213C32.1981 41.9213 32.2265 35.7432 32.2265 35.7432C32.545 36.7344 33.985 39.9749 35.2401 41.2965C42.3711 48.8079 51.0724 42.4254 47.4754 34.6303C46.3391 32.1671 40.5547 30.2672 40.5547 30.2672C40.5547 30.2672 44.1885 30.0692 46.0511 29.4582C47.9137 28.8482 48.2018 27.4292 48.474 25.217C48.7463 23.0047 48.8219 21.9976 49.4884 19.8617C50.1548 17.7257 49.6544 16.0938 48.8976 15.0708L48.8987 15.0687Z" fill="white"/>
<path d="M22.5304 53C19.3812 53 16.4391 51.3459 14.8445 48.6741L5.22441 32.5532C3.6067 29.8432 3.59094 26.464 5.18342 23.7329L14.6353 7.51987C16.2173 4.80569 19.1731 3.11026 22.3496 3.09438L41.4237 3.00013C44.5887 2.98318 47.5529 4.64261 49.1549 7.32607L58.776 23.4459C60.3926 26.1558 60.4095 29.5351 58.817 32.2662L49.364 48.4803C47.7821 51.1934 44.8262 52.8888 41.6497 52.9047L22.5767 52.9989C22.562 52.9989 22.5462 52.9989 22.5315 52.9989L22.5304 53ZM41.4678 5.54169C41.4573 5.54169 41.4458 5.54169 41.4353 5.54169L22.3623 5.63594C20.0708 5.64759 17.9443 6.86224 16.8101 8.80653L7.35824 25.0206C6.23456 26.948 6.24507 29.3317 7.38662 31.2432L17.0077 47.363C18.1535 49.283 20.2841 50.469 22.5641 50.4574L41.6381 50.3631C43.9296 50.3515 46.0561 49.1368 47.1903 47.1925L56.6432 30.9785C57.7669 29.0511 57.7564 26.6663 56.6148 24.7559L46.9937 8.63603C45.8532 6.72563 43.7394 5.54169 41.4699 5.54169H41.4678Z" fill="white"/>
<defs>
<filter id="filter0_d_1542_29937" x="0" y="0" width="64" height="58" filterUnits="userSpaceOnUse" color-interpolation-filters="sRGB">
<feFlood flood-opacity="0" result="BackgroundImageFix"/>
<feColorMatrix in="SourceAlpha" type="matrix" values="0 0 0 0 0 0 0 0 0 0 0 0 0 0 0 0 0 0 127 0" result="hardAlpha"/>
<feOffset dy="1"/>
<feGaussianBlur stdDeviation="2"/>
<feComposite in2="hardAlpha" operator="out"/>
<feColorMatrix type="matrix" values="0 0 0 0 0.435294 0 0 0 0 0.113725 0 0 0 0 0.956863 0 0 0 0.12 0"/>
<feBlend mode="normal" in2="BackgroundImageFix" result="effect1_dropShadow_1542_29937"/>
<feBlend mode="normal" in="SourceGraphic" in2="effect1_dropShadow_1542_29937" result="shape"/>
</filter>
</defs>
</svg>
