<svg width="12" height="12" viewBox="0 0 12 12" fill="none" xmlns="http://www.w3.org/2000/svg">
<path d="M4.65625 9.0603C4.72258 9.10048 4.7964 9.12038 4.86951 9.12038V9.12109C4.97543 9.12109 5.07993 9.07986 5.1591 9.00058L8.26182 5.88825C8.37844 5.77129 8.41267 5.5971 8.34919 5.44459C8.28571 5.29209 8.13735 5.19361 7.97187 5.19361H6.64733L7.2636 3.68171C7.31495 3.55586 7.29998 3.41366 7.22401 3.30097C7.14769 3.18828 7.02109 3.12109 6.88485 3.12109H5.10454C4.92016 3.12109 4.75789 3.24623 4.7101 3.42184L3.85703 6.10723L3.85204 6.12252L3.84883 6.13816C3.82315 6.25902 3.85311 6.38309 3.93121 6.47907C4.00896 6.5747 4.12486 6.6298 4.24861 6.6298H5.12058L4.48078 8.58643C4.42194 8.76667 4.49398 8.96148 4.65625 9.0603Z" fill="black"/>
<path fill-rule="evenodd" clip-rule="evenodd" d="M5.99922 10.3192C8.38509 10.3192 10.3192 8.38509 10.3192 5.99922C10.3192 3.61335 8.38509 1.67922 5.99922 1.67922C3.61335 1.67922 1.67922 3.61335 1.67922 5.99922C1.67922 8.38509 3.61335 10.3192 5.99922 10.3192ZM5.99922 10.7992C8.65019 10.7992 10.7992 8.65019 10.7992 5.99922C10.7992 3.34825 8.65019 1.19922 5.99922 1.19922C3.34825 1.19922 1.19922 3.34825 1.19922 5.99922C1.19922 8.65019 3.34825 10.7992 5.99922 10.7992Z" fill="black"/>
</svg>
