<svg width="44" height="50" viewBox="0 0 44 50" fill="none" xmlns="http://www.w3.org/2000/svg">
<path d="M40.8282 19.5657C42.165 19.5657 43.25 20.6347 43.25 21.9572C43.25 32.7166 35.0014 41.601 24.423 42.7944V47.6085C24.423 48.9286 23.338 50 22.0012 50C20.662 50 19.5794 48.9286 19.5794 47.6085V42.7944C8.99862 41.601 0.75 32.7166 0.75 21.9572C0.75 20.6347 1.83496 19.5657 3.17179 19.5657C4.50862 19.5657 5.59358 20.6347 5.59358 21.9572C5.59358 30.8895 12.9534 38.1572 22.0012 38.1572C31.0466 38.1572 38.4064 30.8895 38.4064 21.9572C38.4064 20.6347 39.4914 19.5657 40.8282 19.5657ZM22.4369 0C28.4454 0 33.318 4.80933 33.318 10.7427V22.3008C33.318 28.2318 28.4454 33.0435 22.4369 33.0435H21.5626C15.5542 33.0435 10.6839 28.2318 10.6839 22.3008V10.7427C10.6839 4.80933 15.5542 0 21.5626 0H22.4369Z" fill="#F02461"/>
</svg>
