<svg width="64" height="58" viewBox="0 0 64 58" fill="none" xmlns="http://www.w3.org/2000/svg">
<g filter="url(#filter0_d_1542_29930)">
<path d="M58.7763 23.4458L49.155 7.32596C47.5604 4.65519 44.6182 3 41.4689 3C41.4542 3 41.4395 3 41.4237 3L22.3492 3.09425C19.1726 3.11013 16.2167 4.80557 14.6347 7.51869L5.18266 23.7339C3.59119 26.4639 3.60696 29.8442 5.22365 32.5542L14.845 48.674C16.4396 51.3459 19.3808 53 22.5311 53C22.5458 53 22.5616 53 22.5763 53L41.6497 52.9058C44.8263 52.8899 47.7822 51.1944 49.3642 48.4813L58.8173 32.2672C60.4088 29.5371 60.393 26.1568 58.7763 23.4469V23.4458Z" fill="url(#paint0_linear_1542_29930)"/>
</g>
<path d="M58.7764 23.4458L49.155 7.32596C47.5604 4.65519 44.6182 3 41.4689 3C41.4542 3 41.4395 3 41.4237 3L22.3492 3.09425C19.1726 3.11013 16.2167 4.80557 14.6347 7.51869L5.18266 23.7339C3.59119 26.4639 3.60696 29.8442 5.22365 32.5542L14.845 48.674C16.4396 51.3459 19.3808 53 22.5311 53C22.5458 53 22.5616 53 22.5763 53L41.6497 52.9058C44.8263 52.8899 47.7822 51.1944 49.3642 48.4813L58.8173 32.2672C60.4088 29.5371 60.393 26.1568 58.7764 23.4469V23.4458ZM56.6425 30.9784L48.106 45.6221C47.4795 40.7602 39.7776 37.5716 31.8549 37.5716C23.9323 37.5716 16.7034 40.5294 15.6807 45.1402L7.3859 31.2431C6.24538 29.3317 6.23487 26.9468 7.35752 25.0205L16.8107 8.80642C17.9438 6.86212 20.0714 5.64746 22.3629 5.63581L41.4363 5.54157C41.4468 5.54157 41.4584 5.54157 41.4689 5.54157C43.7384 5.54157 45.8523 6.72551 46.9928 8.63592L56.6141 24.7558C57.7546 26.6673 57.7651 29.0521 56.6425 30.9784Z" fill="white"/>
<path d="M31.8555 12.2891C26.258 12.2891 21.7695 16.8078 21.7695 22.4447C21.7695 28.0817 26.258 32.6025 31.8555 32.6025C37.4529 32.6025 41.9414 28.0817 41.9414 22.4447C41.9414 16.8078 37.455 12.2891 31.8555 12.2891Z" fill="white"/>
<defs>
<filter id="filter0_d_1542_29930" x="0" y="0" width="64" height="58" filterUnits="userSpaceOnUse" color-interpolation-filters="sRGB">
<feFlood flood-opacity="0" result="BackgroundImageFix"/>
<feColorMatrix in="SourceAlpha" type="matrix" values="0 0 0 0 0 0 0 0 0 0 0 0 0 0 0 0 0 0 127 0" result="hardAlpha"/>
<feOffset dy="1"/>
<feGaussianBlur stdDeviation="2"/>
<feComposite in2="hardAlpha" operator="out"/>
<feColorMatrix type="matrix" values="0 0 0 0 0.435294 0 0 0 0 0.113725 0 0 0 0 0.956863 0 0 0 0.12 0"/>
<feBlend mode="normal" in2="BackgroundImageFix" result="effect1_dropShadow_1542_29930"/>
<feBlend mode="normal" in="SourceGraphic" in2="effect1_dropShadow_1542_29930" result="shape"/>
</filter>
<linearGradient id="paint0_linear_1542_29930" x1="19.9901" y1="12.5562" x2="46.0343" y2="45.1464" gradientUnits="userSpaceOnUse">
<stop stop-color="#FF41B3"/>
<stop offset="1" stop-color="#7E00E0"/>
</linearGradient>
</defs>
</svg>
