<svg width="27" height="18" viewBox="0 0 27 18" fill="none" xmlns="http://www.w3.org/2000/svg">
<path fill-rule="evenodd" clip-rule="evenodd" d="M10.1935 17.1995C10.8498 17.4135 11.5554 17.055 11.7694 16.3986C11.9835 15.7423 11.6249 15.0367 10.9686 14.8227C10.5601 14.6894 9.84682 14.3307 8.94931 13.7787C8.07636 13.2419 7.10426 12.5693 6.19856 11.8665C5.46634 11.2983 4.79749 10.7258 4.26614 10.2031H25.3801C26.0705 10.2031 26.6301 9.6435 26.6301 8.95314C26.6301 8.26278 26.0705 7.70314 25.3801 7.70314H4.26152C4.78677 7.18001 5.44792 6.60719 6.17308 6.03882C7.07282 5.33362 8.04069 4.65902 8.91477 4.12095C9.81312 3.56794 10.5324 3.20915 10.9547 3.07549C11.6129 2.86718 11.9776 2.16475 11.7693 1.50658C11.5609 0.8484 10.8585 0.483711 10.2003 0.692022C9.47282 0.92228 8.53889 1.41662 7.60421 1.992C6.64526 2.58232 5.60027 3.31138 4.63088 4.07118C3.66646 4.82707 2.74613 5.63736 2.05384 6.39325C1.70903 6.76974 1.39474 7.16081 1.15945 7.54776C0.942698 7.90424 0.701172 8.4035 0.701172 8.96217C0.701172 9.52544 0.948136 10.0266 1.16704 10.3813C1.40523 10.7672 1.72305 11.1569 2.07096 11.5315C2.76959 12.2837 3.69729 13.0899 4.66592 13.8416C5.63973 14.5972 6.68611 15.3218 7.63973 15.9083C8.56878 16.4796 9.49016 16.9701 10.1935 17.1995Z" fill="url(#paint0_linear_1195_7895)"/>
<defs>
<linearGradient id="paint0_linear_1195_7895" x1="2.21799" y1="8.94741" x2="19.0135" y2="20.2578" gradientUnits="userSpaceOnUse">
<stop stop-color="#FF41B3"/>
<stop offset="1" stop-color="#7E00E0"/>
</linearGradient>
</defs>
</svg>
