<svg width="12" height="14" viewBox="0 0 12 14" fill="none" xmlns="http://www.w3.org/2000/svg">
<path fill-rule="evenodd" clip-rule="evenodd" d="M11.5247 2.49499C11.7841 2.49499 12 2.71032 12 2.98431V3.23765C12 3.50498 11.7841 3.72697 11.5247 3.72697H0.475902C0.215907 3.72697 0 3.50498 0 3.23765V2.98431C0 2.71032 0.215907 2.49499 0.475902 2.49499H2.41971C2.81457 2.49499 3.1582 2.21432 3.24703 1.81833L3.34882 1.36366C3.50702 0.744337 4.02766 0.333008 4.62351 0.333008H7.37649C7.96585 0.333008 8.49233 0.744337 8.64469 1.331L8.75362 1.81766C8.8418 2.21432 9.18543 2.49499 9.58094 2.49499H11.5247ZM10.5372 11.7557C10.7402 9.86438 11.0955 5.37109 11.0955 5.32576C11.1084 5.18843 11.0637 5.05843 10.9749 4.95376C10.8796 4.85576 10.759 4.79776 10.626 4.79776H1.37901C1.24545 4.79776 1.11837 4.85576 1.03019 4.95376C0.940717 5.05843 0.896628 5.18843 0.903112 5.32576C0.904303 5.33409 0.917053 5.49236 0.938368 5.75698C1.03306 6.93248 1.29678 10.2065 1.46719 11.7557C1.58779 12.897 2.33665 13.6143 3.42137 13.6403C4.25842 13.6597 5.12075 13.6663 6.00253 13.6663C6.83309 13.6663 7.67662 13.6597 8.53959 13.6403C9.66192 13.621 10.4101 12.9163 10.5372 11.7557Z" fill="#F02461"/>
</svg>
