<svg width="16" height="17" viewBox="0 0 16 17" fill="none" xmlns="http://www.w3.org/2000/svg">
<path d="M8 0.5C12.4183 0.5 16 4.08172 16 8.5C16 12.9183 12.4183 16.5 8 16.5C3.58172 16.5 0 12.9183 0 8.5C0 4.08172 3.58172 0.5 8 0.5ZM11.344 6.1C11.072 5.828 10.624 5.828 10.352 6.1L7.048 9.404L5.648 8.004C5.376 7.732 4.928 7.732 4.656 8.004C4.384 8.276 4.384 8.716 4.656 8.996L6.56 10.892C6.696 11.028 6.872 11.092 7.048 11.092C7.232 11.092 7.408 11.028 7.544 10.892L11.344 7.092C11.616 6.82 11.616 6.38 11.344 6.1Z" fill="#007BD2"/>
</svg>
