<svg width="57" height="58" viewBox="0 0 57 58" fill="none" xmlns="http://www.w3.org/2000/svg">
    <path d="M53.5319 15.7475C53.2498 14.6203 52.6752 13.5876 51.8662 12.7536C51.0572 11.9196 50.0424 11.3138 48.9244 10.9975C44.8394 10 28.4994 10 28.4994 10C28.4994 10 12.1594 10 8.0744 11.0925C6.95637 11.4088 5.9416 12.0146 5.1326 12.8486C4.3236 13.6826 3.74903 14.7153 3.4669 15.8425C2.71929 19.9882 2.35359 24.1937 2.3744 28.4062C2.34776 32.6505 2.71348 36.8881 3.4669 41.065C3.77793 42.1571 4.36538 43.1506 5.1725 43.9494C5.97961 44.7482 6.9791 45.3253 8.0744 45.625C12.1594 46.7175 28.4994 46.7175 28.4994 46.7175C28.4994 46.7175 44.8394 46.7175 48.9244 45.625C50.0424 45.3087 51.0572 44.7029 51.8662 43.8689C52.6752 43.0349 53.2498 42.0021 53.5319 40.875C54.2738 36.7605 54.6394 32.587 54.6244 28.4062C54.6511 24.162 54.2853 19.9244 53.5319 15.7475Z" fill="white" fill-opacity="0.4" stroke="white" stroke-width="2" stroke-linecap="round" stroke-linejoin="round"/>
    <path d="M23.1562 34.4534C23.1562 35.2203 23.984 35.7018 24.6506 35.3227L35.284 29.2755C35.9582 28.8921 35.9582 27.9204 35.284 27.537L24.6506 21.4898C23.984 21.1107 23.1562 21.5922 23.1562 22.3591V34.4534Z" fill="white"/>
</svg>
